TITLE ""
FILE "2Q_e_001-010.mp3" MP3
  TRACK 01 AUDIO
    TITLE "2Q_e_001-010_01"
    INDEX 01 00:00:00
  TRACK 02 AUDIO
    TITLE "2Q_e_001-010_02"
    INDEX 01 00:01:47
  TRACK 03 AUDIO
    TITLE "2Q_e_001-010_03"
    INDEX 01 00:02:17
  TRACK 04 AUDIO
    TITLE "2Q_e_001-010_04"
    INDEX 01 00:03:50
  TRACK 05 AUDIO
    TITLE "2Q_e_001-010_05"
    INDEX 01 00:04:22
  TRACK 06 AUDIO
    TITLE "2Q_e_001-010_06"
    INDEX 01 00:06:46
  TRACK 07 AUDIO
    TITLE "2Q_e_001-010_07"
    INDEX 01 00:07:16
  TRACK 08 AUDIO
    TITLE "2Q_e_001-010_08"
    INDEX 01 00:11:30
  TRACK 09 AUDIO
    TITLE "2Q_e_001-010_09"
    INDEX 01 00:12:02
  TRACK 10 AUDIO
    TITLE "2Q_e_001-010_10"
    INDEX 01 00:13:42
  TRACK 11 AUDIO
    TITLE "2Q_e_001-010_11"
    INDEX 01 00:14:14
  TRACK 12 AUDIO
    TITLE "2Q_e_001-010_12"
    INDEX 01 00:16:39
  TRACK 13 AUDIO
    TITLE "2Q_e_001-010_13"
    INDEX 01 00:17:09
  TRACK 14 AUDIO
    TITLE "2Q_e_001-010_14"
    INDEX 01 00:21:09
  TRACK 15 AUDIO
    TITLE "2Q_e_001-010_15"
    INDEX 01 00:21:58
  TRACK 16 AUDIO
    TITLE "2Q_e_001-010_16"
    INDEX 01 00:23:37
  TRACK 17 AUDIO
    TITLE "2Q_e_001-010_17"
    INDEX 01 00:24:11
  TRACK 18 AUDIO
    TITLE "2Q_e_001-010_18"
    INDEX 01 00:27:07
  TRACK 19 AUDIO
    TITLE "2Q_e_001-010_19"
    INDEX 01 00:27:52
  TRACK 20 AUDIO
    TITLE "2Q_e_001-010_20"
    INDEX 01 00:31:13
  TRACK 21 AUDIO
    TITLE "2Q_e_001-010_21"
    INDEX 01 00:31:68
  TRACK 22 AUDIO
    TITLE "2Q_e_001-010_22"
    INDEX 01 00:34:35
  TRACK 23 AUDIO
    TITLE "2Q_e_001-010_23"
    INDEX 01 00:35:07
  TRACK 24 AUDIO
    TITLE "2Q_e_001-010_24"
    INDEX 01 00:38:13
  TRACK 25 AUDIO
    TITLE "2Q_e_001-010_25"
    INDEX 01 00:38:60
  TRACK 26 AUDIO
    TITLE "2Q_e_001-010_26"
    INDEX 01 00:43:26
  TRACK 27 AUDIO
    TITLE "2Q_e_001-010_27"
    INDEX 01 00:43:71
  TRACK 28 AUDIO
    TITLE "2Q_e_001-010_28"
    INDEX 01 00:46:55
  TRACK 29 AUDIO
    TITLE "2Q_e_001-010_29"
    INDEX 01 00:47:29
  TRACK 30 AUDIO
    TITLE "2Q_e_001-010_30"
    INDEX 01 00:50:28
  TRACK 31 AUDIO
    TITLE "2Q_e_001-010_31"
    INDEX 01 00:50:75
  TRACK 32 AUDIO
    TITLE "2Q_e_001-010_32"
    INDEX 01 00:56:38
  TRACK 33 AUDIO
    TITLE "2Q_e_001-010_33"
    INDEX 01 00:57:08
  TRACK 34 AUDIO
    TITLE "2Q_e_001-010_34"
    INDEX 01 00:59:44
  TRACK 35 AUDIO
    TITLE "2Q_e_001-010_35"
    INDEX 01 01:00:16
  TRACK 36 AUDIO
    TITLE "2Q_e_001-010_36"
    INDEX 01 01:02:29
  TRACK 37 AUDIO
    TITLE "2Q_e_001-010_37"
    INDEX 01 01:02:74
  TRACK 38 AUDIO
    TITLE "2Q_e_001-010_38"
    INDEX 01 01:10:40
  TRACK 39 AUDIO
    TITLE "2Q_e_001-010_39"
    INDEX 01 01:11:14
  TRACK 40 AUDIO
    TITLE "2Q_e_001-010_40"
    INDEX 01 01:12:12
  TRACK 41 AUDIO
    TITLE "2Q_e_001-010_41"
    INDEX 01 01:12:61
  TRACK 42 AUDIO
    TITLE "2Q_e_001-010_42"
    INDEX 01 01:14:69
  TRACK 43 AUDIO
    TITLE "2Q_e_001-010_43"
    INDEX 01 01:15:39
  TRACK 44 AUDIO
    TITLE "2Q_e_001-010_44"
    INDEX 01 01:22:47
  TRACK 45 AUDIO
    TITLE "2Q_e_001-010_45"
    INDEX 01 01:23:17
  TRACK 46 AUDIO
    TITLE "2Q_e_001-010_46"
    INDEX 01 01:24:27
  TRACK 47 AUDIO
    TITLE "2Q_e_001-010_47"
    INDEX 01 01:24:72
  TRACK 48 AUDIO
    TITLE "2Q_e_001-010_48"
    INDEX 01 01:27:05
  TRACK 49 AUDIO
    TITLE "2Q_e_001-010_49"
    INDEX 01 01:27:52
  TRACK 50 AUDIO
    TITLE "2Q_e_001-010_50"
    INDEX 01 01:35:42
  TRACK 51 AUDIO
    TITLE "2Q_e_001-010_51"
    INDEX 01 01:36:26
  TRACK 52 AUDIO
    TITLE "2Q_e_001-010_52"
    INDEX 01 01:37:65
  TRACK 53 AUDIO
    TITLE "2Q_e_001-010_53"
    INDEX 01 01:38:35
  TRACK 54 AUDIO
    TITLE "2Q_e_001-010_54"
    INDEX 01 01:40:67
  TRACK 55 AUDIO
    TITLE "2Q_e_001-010_55"
    INDEX 01 01:41:35
  TRACK 56 AUDIO
    TITLE "2Q_e_001-010_56"
    INDEX 01 01:48:29
  TRACK 57 AUDIO
    TITLE "2Q_e_001-010_57"
    INDEX 01 01:49:03
  TRACK 58 AUDIO
    TITLE "2Q_e_001-010_58"
    INDEX 01 01:50:26
  TRACK 59 AUDIO
    TITLE "2Q_e_001-010_59"
    INDEX 01 01:50:71
  TRACK 60 AUDIO
    TITLE "2Q_e_001-010_60"
    INDEX 01 01:53:24
  TRACK 61 AUDIO
    TITLE "2Q_e_001-010_61"
    INDEX 01 01:53:70
  TRACK 62 AUDIO
    TITLE "2Q_e_001-010_62"
    INDEX 01 02:00:66
